<?xml version="1.0" encoding="utf-8"?>
<!-- Generator: Adobe Illustrator 18.1.1, SVG Export Plug-In . SVG Version: 6.00 Build 0)  -->
<svg version="1.1" id="Ebene_1" xmlns="http://www.w3.org/2000/svg" xmlns:xlink="http://www.w3.org/1999/xlink" x="0px" y="0px"
	 viewBox="0.9 32.8 48.2 34.3" enable-background="new 0.9 32.8 48.2 34.3" xml:space="preserve">
<g>
	<path fill="none" stroke="#2E2E30" stroke-miterlimit="10" d="M35.8,63.3c0,1.9-0.8,3.3-2.2,3.3h-30c-1.1,0-2.2-1.4-2.2-3.3V36.7
		c0-1.9,0.8-3.3,2.2-3.3h30c1.1,0,2.2,1.4,2.2,3.3C35.8,36.7,35.8,63.3,35.8,63.3z"/>
	<line fill="none" stroke="#2E2E30" stroke-linecap="round" stroke-miterlimit="10" x1="7.8" y1="43.3" x2="29.2" y2="43.3"/>
	<path fill="none" stroke="#2E2E30" stroke-linecap="round" stroke-linejoin="round" stroke-miterlimit="10" d="M35.8,55l10.8,6.9
		c1.1,0.8,1.9-0.3,1.9-1.9V40c0-1.9-0.8-2.8-1.9-1.9L35.8,45"/>
</g>
</svg>
